<svg width="24" height="24" viewBox="0 0 24 24" fill="none" xmlns="http://www.w3.org/2000/svg">
<path fill-rule="evenodd" clip-rule="evenodd" d="M14.2929 6.29289C14.6834 5.90237 15.3166 5.90237 15.7071 6.29289L20.7071 11.2929C20.733 11.3187 20.7574 11.346 20.7803 11.3746L20.7855 11.3809C20.7948 11.3929 20.7993 11.3988 20.8037 11.4047C20.8215 11.4289 20.8383 11.4537 20.8539 11.4793C20.8614 11.4914 20.8685 11.5036 20.8753 11.5159C20.8862 11.5357 20.8966 11.5561 20.9063 11.5769C20.9143 11.5939 20.9218 11.6112 20.9288 11.6287C20.9367 11.6484 20.9439 11.6682 20.9505 11.6883C20.9553 11.7031 20.9599 11.7185 20.9642 11.734C20.9702 11.7556 20.9754 11.7773 20.9798 11.7992C20.9833 11.8166 20.9864 11.8341 20.989 11.8515C20.9962 11.8996 21 11.9494 21 12L20.9963 11.9138C20.9978 11.9317 20.9989 11.9497 20.9995 11.9677L21 12C21 12.0112 20.9998 12.0224 20.9994 12.0335C20.9989 12.0506 20.9979 12.0679 20.9964 12.0852C20.9946 12.1071 20.9921 12.1281 20.989 12.149C20.9864 12.1659 20.9833 12.1834 20.9798 12.2007C20.9754 12.2227 20.9702 12.2444 20.9643 12.2658C20.9599 12.2815 20.9553 12.2969 20.9503 12.3121C20.9439 12.3318 20.9367 12.3516 20.9289 12.3711C20.9218 12.3888 20.9143 12.4061 20.9063 12.4232C20.8966 12.4439 20.8862 12.4643 20.8751 12.4843C20.8685 12.4964 20.8614 12.5086 20.854 12.5207C20.8508 12.5258 20.8476 12.531 20.8443 12.5361L20.8087 12.5884C20.7785 12.6299 20.7446 12.6696 20.7071 12.7071L20.7857 12.6187C20.7839 12.621 20.7821 12.6232 20.7803 12.6254L20.7071 12.7071L15.7071 17.7071C15.3166 18.0976 14.6834 18.0976 14.2929 17.7071C13.9024 17.3166 13.9024 16.6834 14.2929 16.2929L17.584 13H4C3.48716 13 3.06449 12.614 3.00673 12.1166L3 12C3 11.4477 3.44772 11 4 11H17.585L14.2929 7.70711C13.9324 7.34662 13.9047 6.77939 14.2097 6.3871L14.2929 6.29289Z" fill="#333333"/>
</svg>
